#!OML:ASF F:\VICON\USERDATA\INSTALL\rory3\rory3.ASF
:FULLY-SPECIFIED
:DEGREES
253
root 1.57229 18.0257 2.55135 -1.59762 -47.6338 -0.0355995
lowerback 10.1573 -0.0233144 -1.46439
upperback 0.616456 -0.128074 1.65992
thorax -5.04995 -0.0193243 2.57889
lowerneck -20.7138 -4.36966 -9.88752
upperneck 25.2267 -5.03891 7.0303
head 12.2081 -2.34726 3.47669
rclavicle 1.22128e-013 -1.39149e-014
rhumerus -40.455 -19.5741 -74.9203
rradius 25.3003
rwrist 14.7132
rhand -9.945 8.0704
rfingers 7.12502
rthumb 16.0366 -21.2859
lclavicle 1.22128e-013 -1.39149e-014
lhumerus -35.9763 -0.527822 85.2063
lradius 32.2516
lwrist -9.65509
lhand -14.4542 25.4115
lfingers 7.12502
lthumb 11.6911 55.0653
rfemur -16.0506 -0.831494 24.2168
rtibia 24.439
rfoot -5.199 5.22673
rtoes 12.4434
lfemur 5.56 -2.92842 -20.4895
ltibia 44.1214
lfoot 24.3279 -17.7137
ltoes 3.49694
254
root 1.45408 18.0368 2.64375 -1.31157 -47.8663 -0.450538
lowerback 10.1933 0.116467 -1.2009
upperback 0.622305 0.0908063 1.72972
thorax -5.07578 0.0834031 2.47182
lowerneck -20.4013 -4.48127 -9.92862
upperneck 24.8263 -5.16107 6.92881
head 12.0008 -2.41915 3.41676
rclavicle 5.16592e-014 -1.59028e-015
rhumerus -40.2827 -19.4579 -74.9972
rradius 25.282
rwrist 14.9196
rhand -9.98429 8.24857
rfingers 7.12502
rthumb 15.9988 -21.1108
lclavicle 5.16592e-014 -1.59028e-015
lhumerus -36.0552 -0.870899 85.4233
lradius 32.4157
lwrist -9.55883
lhand -14.2539 25.6389
lfingers 7.12502
lthumb 11.8843 55.2816
rfemur -15.3578 -0.664195 24.6035
rtibia 24.2068
rfoot -5.40893 5.37955
rtoes 12.0558
lfemur 4.17485 -2.45255 -19.9658
ltibia 46.3998
lfoot 22.0045 -17.6906
ltoes 1.50133
255
root 1.33768 18.0481 2.73345 -1.0569 -48.0589 -0.858521
lowerback 10.3027 0.240067 -1.04568
upperback 0.624589 0.27906 1.86822
thorax -5.14454 0.174459 2.50252
lowerneck -20.1652 -4.5885 -10.1847
upperneck 24.5194 -5.24042 6.95531
head 11.853 -2.47582 3.45179
rclavicle -5.0218e-014 1.59028e-015
rhumerus -40.0522 -19.3775 -74.9349
rradius 25.2481
rwrist 15.2029
rhand -9.98062 8.01711
rfingers 7.12502
rthumb 16.0023 -21.342
lclavicle -5.0218e-014 1.59028e-015
lhumerus -36.0548 -1.01112 85.6743
lradius 32.43
lwrist -9.54159
lhand -14.3531 25.4149
lfingers 7.12502
lthumb 11.7887 55.0631
rfemur -14.6159 -0.321694 24.9627
rtibia 23.9343
rfoot -5.67172 5.26611
rtoes 12.0841
lfemur 2.79862 -2.09841 -19.5005
ltibia 48.6114
lfoot 19.4021 -17.3084
ltoes -3.04806
256
root 1.22219 18.0598 2.82346 -0.842011 -48.0917 -1.13957
lowerback 10.3027 0.31273 -0.8741
upperback 0.643728 0.397463 1.9185
thorax -5.12978 0.228902 2.44079
lowerneck -20.1854 -4.6018 -10.4143
upperneck 24.5975 -5.29342 7.32408
head 11.9111 -2.4756 3.62427
rclavicle -2.85504e-014 -1.98785e-015
rhumerus -39.7875 -19.1258 -75.1194
rradius 25.3956
rwrist 15.2016
rhand -9.91863 7.5099
rfingers 7.12502
rthumb 16.062 -21.8444
lclavicle -2.85504e-014 -1.98785e-015
lhumerus -36.0607 -1.19023 85.867
lradius 32.5302
lwrist -9.58477
lhand -14.4771 25.239
lfingers 7.12502
lthumb 11.669 54.8941
rfemur -13.8737 -0.322182 25.2155
rtibia 23.5609
rfoot -5.91308 5.37232
rtoes 12.0104
lfemur 1.30632 -1.83064 -19.1348
ltibia 50.7225
lfoot 16.8172 -16.9352
ltoes -2.29953
257
root 1.10754 18.0747 2.91531 -0.489922 -48.0297 -1.53157
lowerback 10.175 0.322432 -0.500614
upperback 0.698052 0.451596 1.91952
thorax -5.00092 0.245472 2.22228
lowerneck -20.3387 -4.59428 -10.5448
upperneck 24.7394 -5.33911 7.69151
head 12.0167 -2.46073 3.78241
rclavicle 4.1869e-014 -2.34566e-014
rhumerus -39.409 -18.7416 -75.4938
rradius 25.5363
rwrist 14.9928
rhand -9.86843 7.19016
rfingers 7.12502
rthumb 16.1103 -22.1602
lclavicle 4.1869e-014 -2.34566e-014
lhumerus -36.0003 -1.36064 85.939
lradius 32.6458
lwrist -9.47886
lhand -14.4273 25.2676
lfingers 7.12502
lthumb 11.7171 54.9199
rfemur -13.1632 -0.300313 25.5284
rtibia 23.1414
rfoot -6.09591 5.39172
rtoes 12.9127
lfemur -0.308286 -1.59293 -18.6211
ltibia 52.6881
lfoot 14.5908 -16.4948
ltoes -0.917927
258
root 0.9905 18.0936 3.00941 -0.249865 -48.0772 -1.84132
lowerback 9.99414 0.35893 -0.150145
upperback 0.815952 0.532186 1.85005
thorax -4.77574 0.274696 1.93966
lowerneck -20.4049 -4.61029 -10.361
upperneck 24.683 -5.40366 7.66238
head 12.0078 -2.47308 3.72739
rclavicle 3.57067e-014 -5.56597e-015
rhumerus -38.9962 -18.7611 -75.7901
rradius 25.63
rwrist 15.0336
rhand -9.86378 7.41407
rfingers 7.12502
rthumb 16.1148 -21.9359
lclavicle 3.57067e-014 -5.56597e-015
lhumerus -35.8374 -1.27731 85.7701
lradius 32.7403
lwrist -9.52019
lhand -14.1528 25.1164
lfingers 7.12502
lthumb 11.9818 54.7535
rfemur -12.4056 -0.141265 25.7934
rtibia 22.7637
rfoot -6.41907 5.35503
rtoes 12.5784
lfemur -1.78961 -1.46086 -18.2214
ltibia 54.4346
lfoot 12.9262 -15.242
ltoes 2.48239
259
root 0.877459 18.1043 3.09606 -0.154478 -48.0342 -2.024
lowerback 10.0299 0.384143 -0.0370391
upperback 0.863275 0.57681 1.8419
thorax -4.7466 0.293698 1.86092
lowerneck -20.3218 -4.59399 -10.1815
upperneck 24.5338 -5.39675 7.51847
head 11.9222 -2.47071 3.63993
rclavicle -3.10104e-014 2.78299e-015
rhumerus -38.6634 -18.6599 -76.0023
rradius 25.746
rwrist 15.0612
rhand -10.2106 7.529
rfingers 7.12502
rthumb 15.7808 -21.8477
lclavicle -3.10104e-014 2.78299e-015
lhumerus -35.7788 -0.998347 85.67
lradius 32.8117
lwrist -9.72172
lhand -14.1463 25.1501
lfingers 7.12502
lthumb 11.988 54.7868
rfemur -11.6705 -0.140392 25.9832
rtibia 22.4621
rfoot -6.76993 5.30646
rtoes 11.9519
lfemur -3.16362 -1.32923 -17.9395
ltibia 55.9422
lfoot 11.4231 -13.9947
ltoes 4.36369
260
root 0.765728 18.1073 3.18692 -0.12938 -48.0722 -2.19324
lowerback 10.1594 0.438302 0.0441827
upperback 0.86815 0.661367 1.90042
thorax -4.81654 0.33425 1.86411
lowerneck -20.2016 -4.58623 -10.2965
upperneck 24.4993 -5.36496 7.54354
head 11.8864 -2.46648 3.67434
rclavicle -1.55822e-013 1.07344e-014
rhumerus -38.465 -18.264 -76.0567
rradius 25.931
rwrist 14.7844
rhand -10.2105 7.83502
rfingers 7.12502
rthumb 15.7809 -21.5417
lclavicle -1.55822e-013 1.07344e-014
lhumerus -35.8785 -0.487126 85.6275
lradius 32.9414
lwrist -9.90848
lhand -14.1574 25.3727
lfingers 7.12502
lthumb 11.9774 55.01
rfemur -10.9528 -0.205254 26.1488
rtibia 22.3027
rfoot -7.15017 5.31654
rtoes 12.0942
lfemur -4.40671 -0.955555 -17.6929
ltibia 57.2144
lfoot 9.74687 -13.3081
ltoes 3.15622
261
root 0.655858 18.1037 3.27811 -0.116946 -48.0731 -2.35391
lowerback 10.2012 0.476038 0.217228
upperback 0.92871 0.730195 1.91592
thorax -4.77682 0.363998 1.77269
lowerneck -20.1937 -4.57793 -10.292
upperneck 24.5591 -5.32652 7.43255
head 11.9004 -2.46362 3.63895
rclavicle 5.86415e-015 1.98785e-015
rhumerus -38.1773 -17.9652 -76.155
rradius 26.1023
rwrist 14.463
rhand -10.2573 8.17603
rfingers 7.12502
rthumb 15.7359 -21.2042
lclavicle 5.86415e-015 1.98785e-015
lhumerus -35.9271 -0.199963 85.6022
lradius 33.2438
lwrist -9.35018
lhand -13.9041 25.482
lfingers 7.12502
lthumb 12.2215 55.1049
rfemur -10.3373 -0.514874 26.3131
rtibia 22.3063
rfoot -7.65012 5.53131
rtoes 11.5282
lfemur -5.60101 -0.492422 -17.4395
ltibia 58.2931
lfoot 8.08287 -13.0269
ltoes 0.926717
262
root 0.548234 18.0957 3.36492 -0.0455007 -47.9734 -2.49211
lowerback 10.1794 0.504202 0.434175
upperback 0.976764 0.786719 1.83799
thorax -4.71193 0.386459 1.56094
lowerneck -20.21 -4.61366 -10.0583
upperneck 24.6285 -5.38216 7.17062
head 11.9207 -2.49973 3.49115
rclavicle -2.14936e-014 3.18055e-015
rhumerus -37.8837 -18.2153 -76.2437
rradius 26.2372
rwrist 14.6937
rhand -10.301 8.48569
rfingers 7.12502
rthumb 15.6938 -20.8979
lclavicle -2.14936e-014 3.18055e-015
lhumerus -35.8372 -0.319173 85.5624
lradius 33.4291
lwrist -8.40637
lhand -13.6807 25.5743
lfingers 7.12502
lthumb 12.4369 55.1843
rfemur -9.85691 -0.854572 26.481
rtibia 22.3743
rfoot -8.18911 5.64639
rtoes 10.2389
lfemur -6.87047 -0.125915 -17.2202
ltibia 59.2181
lfoot 6.55673 -12.9082
ltoes -0.721095
263
root 0.439488 18.09 3.44674 -0.0132088 -47.8562 -2.53521
lowerback 10.2397 0.54881 0.428793
upperback 0.956542 0.845577 1.80814
thorax -4.76783 0.415624 1.52416
lowerneck -20.2179 -4.65912 -10.0596
upperneck 24.756 -5.46637 7.20825
head 11.9818 -2.53434 3.49412
rclavicle 7.80478e-014 8.34896e-015
rhumerus -37.6757 -18.2203 -76.2948
rradius 26.459
rwrist 14.729
rhand -10.1454 8.81089
rfingers 7.12502
rthumb 15.8437 -20.5609
lclavicle 7.80478e-014 8.34896e-015
lhumerus -35.6811 -0.331819 85.5654
lradius 33.3396
lwrist -7.80045
lhand -13.5787 25.5248
lfingers 7.12502
lthumb 12.5353 55.1288
rfemur -9.40352 -0.933295 26.584
rtibia 22.4716
rfoot -8.70758 5.50683
rtoes 9.93887
lfemur -8.17814 0.0535677 -17.138
ltibia 59.9801
lfoot 5.19774 -12.6712
ltoes -1.68279
264
root 0.33145 18.0886 3.53323 0.053792 -47.8857 -2.64761
lowerback 10.2816 0.613083 0.552908
upperback 0.969997 0.943389 1.77002
thorax -4.77682 0.460956 1.4002
lowerneck -20.346 -4.68856 -10.101
upperneck 24.9686 -5.51441 7.27283
head 12.0985 -2.55149 3.52142
rclavicle -1.29955e-014 -1.78906e-014
rhumerus -37.4089 -17.6371 -76.6281
rradius 26.8517
rwrist 13.9915
rhand -10.1123 8.8954
rfingers 7.12502
rthumb 15.8755 -20.4738
lclavicle -1.29955e-014 -1.78906e-014
lhumerus -35.5636 -0.206143 85.5032
lradius 33.3017
lwrist -7.4912
lhand -13.713 25.3547
lfingers 7.12502
lthumb 12.4058 54.9666
rfemur -8.90555 -0.860086 26.7053
rtibia 22.5641
rfoot -9.21229 5.39791
rtoes 10.3515
lfemur -9.40585 0.245315 -17.0579
ltibia 60.5576
lfoot 3.8151 -12.4779
ltoes -3.75063
265
root 0.225932 18.0827 3.62152 0.218931 -48.0993 -2.89375
lowerback 10.2844 0.727098 0.817427
upperback 0.999675 1.12121 1.71504
thorax -4.74482 0.542752 1.16848
lowerneck -20.2597 -4.72982 -10.0725
upperneck 24.9409 -5.5914 7.27412
head 12.0778 -2.5845 3.50393
rclavicle -4.84041e-014 -6.36111e-015
rhumerus -37.1102 -17.2666 -77
rradius 27.2846
rwrist 13.4345
rhand -10.1165 9.0637
rfingers 7.12502
rthumb 15.8715 -20.3058
lclavicle -4.84041e-014 -6.36111e-015
lhumerus -35.5466 0.155439 85.3135
lradius 33.4696
lwrist -7.59538
lhand -13.7518 25.4677
lfingers 7.12502
lthumb 12.3684 55.0818
rfemur -8.44941 -0.651355 26.9135
rtibia 22.7017
rfoot -9.69187 5.37985
rtoes 10.6836
lfemur -10.5522 0.649598 -16.8731
ltibia 60.9472
lfoot 2.4195 -12.2985
ltoes -6.33724
266
root 0.118855 18.072 3.71 0.401893 -48.3524 -3.18887
lowerback 10.2701 0.851886 1.05532
upperback 1.04092 1.31098 1.6927
thorax -4.69069 0.631389 0.984668
lowerneck -20.135 -4.75509 -10.009
upperneck 24.8599 -5.64804 7.24312
head 12.0242 -2.60938 3.47084
rclavicle -4.1869e-014 1.39149e-014
rhumerus -36.7714 -16.8653 -77.376
rradius 27.758
rwrist 12.9578
rhand -10.0889 9.17186
rfingers 7.12502
rthumb 15.898 -20.1956
lclavicle -4.1869e-014 1.39149e-014
lhumerus -35.5522 0.658647 85.0691
lradius 33.643
lwrist -8.14075
lhand -13.5375 25.5321
lfingers 7.12502
lthumb 12.575 55.1337
rfemur -8.00232 -0.382943 27.1709
rtibia 22.9149
rfoot -10.1845 5.37332
rtoes 10.8743
lfemur -11.6051 1.13883 -16.6498
ltibia 61.1623
lfoot 0.815041 -11.9926
ltoes -9.37132
